HIERARCHY
ROOT root
{
	OFFSET	0	13.1	24.9
	CHANNELS 6  Xposition Yposition Zposition Xrotation Yrotation Zrotation
	JOINT spine_1
	{
		OFFSET	0	9.99999	0
		CHANNELS 3  Xrotation Yrotation Zrotation
		JOINT spine_2
		{
			OFFSET	0	112	-10
			CHANNELS 3  Xrotation Yrotation Zrotation
			JOINT spine_3
			{
				OFFSET	0	206.5	19.3
				CHANNELS 3  Xrotation Yrotation Zrotation
				JOINT spine_4
				{
					OFFSET	0	110.4	14.6
					CHANNELS 3  Xrotation Yrotation Zrotation
					JOINT neck_1
					{
						OFFSET	0	71.8	-50.3
						CHANNELS 3  Xrotation Yrotation Zrotation
						JOINT neck_2
						{
							OFFSET	0	86.2	-25.8
							CHANNELS 3  Xrotation Yrotation Zrotation
							JOINT head_ee
							{
								OFFSET	0	179.8	-8.7
								CHANNELS 3  Xrotation Yrotation Zrotation
								End Site
								{
									OFFSET	1	0	0
								}
							}
						}
					}
					JOINT left_clavicle
					{
						OFFSET	-43.2	22.4	-70.8
						CHANNELS 3  Xrotation Yrotation Zrotation
						JOINT left_shoulder
						{
							OFFSET	-93.9	-5.79999	48.7
							CHANNELS 3  Xrotation Yrotation Zrotation
							JOINT left_elbow
							{
								OFFSET	-291.4	-30.8	15.2
								CHANNELS 3  Xrotation Yrotation Zrotation
								JOINT left_lowarm_twist
								{
									OFFSET	-110.7	-3.89999	13.6
									CHANNELS 3  Xrotation Yrotation Zrotation
									JOINT left_hand
									{
										OFFSET	-110.7	-3.89999	13.6
										CHANNELS 3  Xrotation Yrotation Zrotation
										JOINT left_ee
										{
											OFFSET	-80.8	-5.10001	12.1
											CHANNELS 3  Xrotation Yrotation Zrotation
											End Site
											{
												OFFSET	1	0	0
											}
										}
									}
								}
							}
						}
					}
					JOINT right_clavicle
					{
						OFFSET	43.2	22.4	-70.8
						CHANNELS 3  Xrotation Yrotation Zrotation
						JOINT right_shoulder
						{
							OFFSET	93.9	-5.79999	48.7
							CHANNELS 3  Xrotation Yrotation Zrotation
							JOINT right_elbow
							{
								OFFSET	291.4	-30.8	15.2
								CHANNELS 3  Xrotation Yrotation Zrotation
								JOINT right_lowarm_twist
								{
									OFFSET	110.7	-3.89999	13.6
									CHANNELS 3  Xrotation Yrotation Zrotation
									JOINT right_hand
									{
										OFFSET	110.7	-3.89999	13.6
										CHANNELS 3  Xrotation Yrotation Zrotation
										JOINT right_ee
										{
											OFFSET	80.8	-5.10001	12.1
											CHANNELS 3  Xrotation Yrotation Zrotation
											End Site
											{
												OFFSET	1	0	0
											}
										}
									}
								}
							}
						}
					}
				}
			}
		}
	}
	JOINT left_hip
	{
		OFFSET	-82.8	-127.5	0.300001
		CHANNELS 3  Xrotation Yrotation Zrotation
		JOINT left_knee
		{
			OFFSET	-28.2	-396.7	2.2
			CHANNELS 3  Xrotation Yrotation Zrotation
			JOINT left_ankle
			{
				OFFSET	-11.7	-411.3	35.4
				CHANNELS 3  Xrotation Yrotation Zrotation
				JOINT left_toes
				{
					OFFSET	0	-60	-88.6
					CHANNELS 3  Xrotation Yrotation Zrotation
					JOINT left_foot_ee
					{
						OFFSET	-22.5	-16.5	-42.2
						CHANNELS 3  Xrotation Yrotation Zrotation
						End Site
						{
							OFFSET	1	0	0
						}
					}
				}
			}
		}
	}
	JOINT right_hip
	{
		OFFSET	82.8	-127.5	0.300001
		CHANNELS 3  Xrotation Yrotation Zrotation
		JOINT right_knee
		{
			OFFSET	28.2	-396.7	2.2
			CHANNELS 3  Xrotation Yrotation Zrotation
			JOINT right_ankle
			{
				OFFSET	11.7	-411.3	35.4
				CHANNELS 3  Xrotation Yrotation Zrotation
				JOINT right_toes
				{
					OFFSET	0	-60	-88.6
					CHANNELS 3  Xrotation Yrotation Zrotation
					JOINT right_foot_ee
					{
						OFFSET	22.5	-16.5	-42.2
						CHANNELS 3  Xrotation Yrotation Zrotation
						End Site
						{
							OFFSET	1	0	0
						}
					}
				}
			}
		}
	}
}
MOTION
Frames: 6
Frame Time: 0.02
859.997813164 617.985 -1772.07630324 14.9941733143 31.160166067 2.32810367052 -5.33265 -0.417098 -1.85267 -5.33079 -0.298384 -1.87545 -5.31704 0.277779 -1.87861 -5.32196 -0.0223428 -1.89889 0.182131 5.29443 10.6119 0.483935 0.664996 11.9957 -0.0 0.0 -0.0 5.6742 -8.68704 10.6653 5.14607 -7.98598 57.7321 1.33159 -33.4084 0.399617 -15.7499 -0.812897 1.83618 -1.59525 -3.88845 -12.481 -0.0 0.0 -0.0 10.7669 14.219 -21.4344 -15.0432 18.6779 -49.8393 0.813198 21.9411 -0.157639 27.339 -0.140903 3.45654 3.24243 -6.20968 -24.5895 0.0 0.0 0.0 -4.478 -31.903 -13.6264 -18.4114 0.311162 2.79612 4.1484 19.2548 -0.611874 30.4951 -0.0 -0.0 -0.0 0.0 -0.0 12.6379 27.4441 -13.5226 -43.0691 0.673476 -6.42249 15.4752 1.28166 2.18025 21.1298 -0.0 -0.0 0.0 0.0 0.0 
838.497953771 617.463 -1784.28624385 14.9085325787 30.2089130105 3.04871142116 -4.91308 -0.551944 -2.1586 -4.91058 -0.413502 -2.18933 -4.88952 0.245537 -2.21445 -4.89635 -0.107186 -2.22544 -1.02448 3.09538 6.4332 -0.911989 0.361381 7.20807 -0.0 0.0 -0.0 6.43216 -8.35402 12.2606 7.75733 -6.93983 55.2712 1.63703 -39.0368 0.580329 -17.3435 -0.922655 2.00815 -2.03743 -8.2589 -17.5308 -0.0 0.0 -0.0 9.86678 11.1125 -19.523 -16.5362 19.2396 -49.8903 0.829629 22.3412 -0.163832 25.8096 -0.176751 3.26446 3.20847 -7.45814 -24.783 0.0 0.0 0.0 -3.63582 -26.5973 -11.6832 -18.7639 0.3083 2.85012 2.00673 19.1163 -0.297464 30.3 -0.0 -0.0 -0.0 0.0 -0.0 14.1482 27.285 -13.3473 -41.0315 0.53369 -6.14206 14.9246 0.792538 2.10491 20.2346 -0.0 -0.0 0.0 0.0 0.0 
816.180305093 613.749 -1798.91356517 14.3676952226 30.3877545049 3.33148094144 -4.80861 -0.337373 -1.80107 -4.80684 -0.222102 -1.81888 -4.79641 0.317225 -1.80473 -4.80096 0.0282708 -1.83217 -0.607041 2.65444 5.92986 -0.510241 -0.06691 6.63685 -0.0 0.0 -0.0 7.22173 -6.18882 13.9743 10.7636 -7.13048 53.329 1.99137 -44.6047 0.816886 -17.1648 -0.910107 1.98902 -2.48743 -6.61406 -19.9915 -0.0 0.0 -0.0 8.7787 7.91906 -17.2213 -17.8479 19.5232 -51.8614 0.8994 24.0144 -0.191295 25.2213 -0.189171 3.19034 3.03401 -6.99755 -23.3678 0.0 0.0 0.0 -1.82699 -18.6167 -9.20716 -17.4781 0.317134 2.65304 8.17029 26.3785 -1.2312 32.4754 -0.0 -0.0 -0.0 0.0 -0.0 16.274 27.6024 -13.8716 -36.4303 0.255422 -5.49207 14.1679 -4.15674 1.98666 20.8513 -0.0 -0.0 0.0 0.0 0.0 
817.74327083 613.749 -1801.88685397 14.2592654208 29.6522896444 3.5482047222 -4.80861 -0.337373 -1.80107 -4.80684 -0.222102 -1.81888 -4.79641 0.317225 -1.80473 -4.80096 0.0282708 -1.83217 -0.607041 2.65444 5.92986 -0.510241 -0.06691 6.63685 -0.0 0.0 -0.0 7.22173 -6.18882 13.9743 10.7636 -7.13048 53.329 1.99137 -44.6047 0.816886 -17.1648 -0.910107 1.98902 -2.48743 -6.61406 -19.9915 -0.0 0.0 -0.0 8.7787 7.91906 -17.2213 -17.8479 19.5232 -51.8614 0.8994 24.0144 -0.191295 25.2213 -0.189171 3.19034 3.03401 -6.99755 -23.3678 0.0 0.0 0.0 -1.82699 -18.6167 -9.20716 -17.4781 0.317134 2.65304 8.17029 26.3785 -1.2312 32.4754 -0.0 -0.0 -0.0 0.0 -0.0 16.274 27.6024 -13.8716 -36.4303 0.255422 -5.49207 14.1679 -4.15674 1.98666 20.8513 -0.0 -0.0 0.0 0.0 0.0 
814.461764753 615.76 -1806.08898513 13.3119760183 29.1825817201 3.03939104782 -4.53424 -0.265469 -1.60061 -4.53283 -0.163094 -1.61426 -4.52573 0.306559 -1.59325 -4.52927 0.0511218 -1.62167 -1.22166 1.10602 3.93897 -1.17531 -1.17819 4.31341 -0.0 0.0 -0.0 7.15982 -6.89425 13.8281 11.7397 -6.98986 52.8069 1.86604 -42.7455 0.730325 -20.0642 -1.12099 2.29455 -2.25916 -10.7929 -20.2335 -0.0 0.0 -0.0 9.09367 6.97812 -17.9011 -17.0357 19.9975 -51.7961 0.759729 20.6236 -0.13823 26.7513 -0.155286 3.38284 2.75746 -8.02509 -21.7664 0.0 0.0 0.0 -3.02907 -19.0677 -8.81808 -16.7512 0.32017 2.54156 5.84868 19.9274 -0.860702 29.8653 -0.0 -0.0 -0.0 0.0 -0.0 16.5098 27.4313 -12.765 -35.8207 0.22251 -5.40437 13.5714 -1.23256 1.91596 21.2816 -0.0 -0.0 0.0 0.0 0.0 
806.94938854 616.586 -1818.8686969 13.8316160543 31.8376344384 1.68442264367 -4.69103 -0.271766 -1.20865 -4.69024 -0.194311 -1.22349 -4.68454 0.16799 -1.22738 -4.68664 -0.0279456 -1.23851 -1.04047 -0.251027 6.12899 -0.89869 -5.39005 6.49604 -0.0 0.0 -0.0 7.33606 -6.61719 14.2024 13.4612 -7.60116 51.1962 1.93837 -43.8325 0.779923 -24.2483 -1.45206 2.71599 -1.91457 -11.6034 -18.1307 -0.0 0.0 -0.0 9.58161 7.7167 -18.9436 -16.7588 20.7553 -53.7837 0.544686 15.1002 -0.0721946 28.81 -0.101598 3.64034 2.20331 -10.8428 -18.9051 0.0 0.0 0.0 -0.847602 -16.7342 -8.21965 -15.598 0.322086 2.36464 12.1931 25.6301 -1.8068 31.2016 -0.0 -0.0 -0.0 0.0 -0.0 16.129 26.4857 -12.5604 -31.5121 0.0168161 -4.7755 12.3317 -7.17394 1.73832 22.4952 -0.0 -0.0 0.0 0.0 0.0 
